<?xml version="1.0" encoding="utf-8"?>
<svg viewBox="0 0 1920 1080" xmlns="http://www.w3.org/2000/svg">
  <defs>
    <clipPath id="clip-1">
      <rect width="443" height="422" fill="white" transform="translate(0 658)"/>
    </clipPath>
  </defs>
  <rect width="1920" height="1080" fill="#E9F9DD" x="0.566" y="-0.037"/>
  <g clip-path="url(#clip-1)" transform="matrix(1, 0, 0, 1, 0.565938, -0.036848)">
    <path d="M25.0167 1422.16C230.747 1422.16 397.524 1257.31 397.524 1053.95C397.524 850.597 230.747 685.746 25.0167 685.746C-180.713 685.746 -347.49 850.597 -347.49 1053.95C-347.49 1257.31 -180.713 1422.16 25.0167 1422.16Z" fill="#739F52"/>
    <path d="M25.0169 1344.85C187.555 1344.85 319.318 1214.61 319.318 1053.95C319.318 893.29 187.555 763.049 25.0169 763.049C-137.521 763.049 -269.284 893.29 -269.284 1053.95C-269.284 1214.61 -137.521 1344.85 25.0169 1344.85Z" fill="#6B954C"/>
    <path d="M25.0165 1276.71C149.477 1276.71 250.373 1176.97 250.373 1053.95C250.373 930.928 149.477 831.197 25.0165 831.197C-99.4444 831.197 -200.34 930.928 -200.34 1053.95C-200.34 1176.97 -99.4444 1276.71 25.0165 1276.71Z" fill="#739F52"/>
  </g>
  <path d="M 1313.566 209.526 C 1177.966 228.686 1085.736 77.801 1056.566 -0.037 L 1920.566 -0.037 L 1920.566 1079.963 L 1824.066 1079.963 C 1525.266 1023.083 1575.566 796.304 1638.066 690.025 C 1674.566 615.431 1740.566 435.705 1712.566 313.56 C 1677.566 160.878 1483.066 185.576 1313.566 209.526 Z" fill="#739F52"/>
</svg>