<?xml version="1.0" encoding="utf-8"?>
<svg viewBox="0 0 1307 1024" xmlns="http://www.w3.org/2000/svg">
  <defs>
    <clipPath id="clip0_427_30">
      <rect width="443" height="422" fill="white" transform="translate(0 602)"/>
    </clipPath>
  </defs>
  <rect width="1307" height="1024" fill="#E9F9DD" x="1.111" y="1.654"/>
  <g clip-path="url(#clip0_427_30)" transform="matrix(1, 0, 0, 1, 1.110704, 1.653866)">
    <path d="M25.0167 1366.16C230.747 1366.16 397.524 1201.31 397.524 997.951C397.524 794.597 230.747 629.746 25.0167 629.746C-180.713 629.746 -347.49 794.597 -347.49 997.951C-347.49 1201.31 -180.713 1366.16 25.0167 1366.16Z" fill="#739F52"/>
    <path d="M25.0169 1288.85C187.555 1288.85 319.318 1158.61 319.318 997.951C319.318 837.29 187.555 707.049 25.0169 707.049C-137.521 707.049 -269.284 837.29 -269.284 997.951C-269.284 1158.61 -137.521 1288.85 25.0169 1288.85Z" fill="#6B954C"/>
    <path d="M25.0165 1220.71C149.477 1220.71 250.373 1120.97 250.373 997.951C250.373 874.928 149.477 775.197 25.0165 775.197C-99.4444 775.197 -200.34 874.928 -200.34 997.951C-200.34 1120.97 -99.4444 1220.71 25.0165 1220.71Z" fill="#739F52"/>
  </g>
  <path d="M 701.111 200.351 C 565.511 218.518 473.278 75.456 444.111 1.654 L 1308.112 1.186 L 1308.111 1025.654 L 1211.611 1025.654 C 912.811 971.722 963.111 756.703 1025.611 655.935 C 1062.111 585.209 1128.111 414.802 1100.111 298.99 C 1065.111 154.225 870.611 177.643 701.111 200.351 Z" fill="#739F52"/>
</svg>