<svg width="25" height="28" fill="none" xmlns="http://www.w3.org/2000/svg"><path d="M12.5 10.44v3.33M12.52 6c-3.68 0-6.66 2.98-6.66 6.66v2.1c0 .68-.28 1.7-.63 2.28l-1.27 2.12c-.78 1.31-.24 2.77 1.2 3.25a23.34 23.34 0 0 0 14.73 0 2.22 2.22 0 0 0 1.2-3.25l-1.27-2.12c-.35-.58-.63-1.61-.63-2.28v-2.1C19.18 9 16.18 6 12.52 6Z" stroke="#555658" stroke-width="1.5" stroke-miterlimit="10" stroke-linecap="round"/><path d="M15.83 22.82c0 1.83-1.5 3.33-3.33 3.33-.91 0-1.75-.38-2.35-.98-.6-.6-.98-1.44-.98-2.35" stroke="#555658" stroke-width="1.5" stroke-miterlimit="10"/></svg>