<svg width="443" height="422" fill="none" xmlns="http://www.w3.org/2000/svg"><g clip-path="url(#a)"><path d="M25.017 764.157c205.73 0 372.507-164.852 372.507-368.206S230.747 27.746 25.017 27.746c-205.73 0-372.507 164.851-372.507 368.205 0 203.354 166.777 368.206 372.507 368.206Z" fill="#739F52"/><path d="M25.017 686.854c162.538 0 294.301-130.242 294.301-290.903 0-160.661-131.763-290.902-294.301-290.902-162.538 0-294.301 130.241-294.301 290.902 0 160.661 131.763 290.903 294.3 290.903Z" fill="#6B954C"/><path d="M25.017 618.705c124.46 0 225.356-99.73 225.356-222.754 0-123.023-100.896-222.754-225.356-222.754-124.461 0-225.357 99.731-225.357 222.754 0 123.024 100.896 222.754 225.357 222.754Z" fill="#739F52"/></g><defs><clipPath id="a"><path fill="#fff" d="M0 0h443v422H0z"/></clipPath></defs></svg>